<?xml version="1.0" encoding="utf-8"?>
<!-- Generator: Adobe Illustrator 22.0.0, SVG Export Plug-In . SVG Version: 6.00 Build 0)  -->
<svg version="1.1" xmlns="http://www.w3.org/2000/svg" xmlns:xlink="http://www.w3.org/1999/xlink" x="0px" y="0px"
	 viewBox="0 0 600 400" style="enable-background:new 0 0 600 400;" xml:space="preserve">
<g id="Ebene_1">
</g>
<g id="Ebene_2">
	<g>
		<g>
			<path d="M100.5,290h10.7l-18.4,28.5c-0.2,0.2-0.4,0.6-0.7,1c-0.3,0.4-0.6,0.9-1,1.3c-0.3,0.4-0.7,0.8-1,1.1
				c-0.3,0.3-0.6,0.5-0.8,0.5H82c-0.3,0-0.6-0.3-0.8-0.8c-0.2-0.5-0.4-1.4-0.5-2.5c-0.2-1.1-0.3-2.6-0.5-4.4
				c-0.2-1.8-0.4-3.9-0.7-6.4l-7.2,10.3c-0.2,0.2-0.4,0.6-0.7,1c-0.3,0.4-0.6,0.9-0.9,1.3c-0.3,0.4-0.7,0.8-1,1.1
				c-0.3,0.3-0.6,0.5-0.9,0.5h-7.3c-0.3,0-0.5-0.2-0.7-0.6c-0.2-0.4-0.3-0.9-0.4-1.4c-0.1-0.5-0.2-1.1-0.2-1.8
				c0-0.6-0.1-1.2-0.1-1.8V290h10.1v16l10.4-16H90l1,14.9L100.5,290z"/>
			<path d="M148.8,290c-0.3,0.6-0.8,1.3-1.4,2.2s-1.4,1.8-2.1,2.7c-0.8,0.9-1.5,1.7-2.2,2.3c-0.7,0.7-1.2,1-1.6,1h-18.8l-3.5,9.6
				l5.8-5.6h14.1l-8.7,8.2h-12.1l-1.3,3.7h23.4c0,0.1-0.1,0.3-0.3,0.5c-0.2,0.3-0.3,0.5-0.5,0.8c-0.2,0.3-0.3,0.5-0.5,0.8
				c-0.2,0.2-0.3,0.4-0.3,0.4c-0.4,0.5-0.9,1.1-1.5,1.7c-0.6,0.7-1.3,1.3-1.9,1.9c-0.6,0.6-1.1,1.1-1.6,1.5
				c-0.5,0.4-0.7,0.6-0.8,0.6h-30.7L114,290H148.8z"/>
			<path d="M159.1,298.2h-11.5v-0.1c0-0.2,0.3-0.6,0.9-1.3c0.5-0.7,1.2-1.5,2-2.4c0.8-0.9,1.5-1.8,2.3-2.6c0.8-0.8,1.5-1.4,2-1.8
				h30.6c-0.3,0.6-0.8,1.3-1.4,2.2c-0.7,0.9-1.4,1.8-2.1,2.7c-0.8,0.9-1.5,1.7-2.2,2.3c-0.7,0.7-1.2,1-1.6,1h-7.2l-8.8,24.1h-11.7
				L159.1,298.2z"/>
			<path d="M188.4,290h27.2c1.5,0,2.6,0.3,3.5,0.9c0.9,0.6,1.6,1.4,2,2.3c0.5,0.9,0.8,2,0.9,3c0.1,1.1,0.2,2.1,0.2,3
				c0,2.1-0.5,3.8-1.5,5.1c-1,1.3-2.3,2.4-3.8,3.2s-3.2,1.4-5.1,1.7c-1.9,0.3-3.6,0.6-5.2,0.7l12,12.3h-13.1l-12.6-11.6l-0.7,0.5
				l-4,11.1h-11.7L188.4,290z M210.5,299.3c0-0.3-0.1-0.6-0.2-0.8s-0.4-0.3-0.9-0.3h-12.3l-3.5,9.5l5.4-5.4h9.8c0.6,0,1-0.3,1.3-0.8
				c0.3-0.5,0.4-1,0.4-1.4V299.3z"/>
			<path d="M224.5,303.5l4.8-13.5h11.5c-1.4,4.1-2.5,7.4-3.3,9.7c-0.8,2.3-1.3,4-1.7,5.2c-0.4,1.1-0.6,1.9-0.7,2.2
				c-0.1,0.3-0.1,0.5-0.1,0.6c-0.2,0.8-0.3,1.5-0.3,2c0,1.4,0.4,2.5,1.2,3.3s1.7,1.2,2.6,1.2h3c1,0,1.9-0.2,2.7-0.6
				c0.8-0.4,1.6-0.9,2.2-1.5c0.6-0.6,1.2-1.3,1.7-2c0.5-0.7,0.9-1.3,1.2-1.9L256,290h11.6l-5.5,15.1c-1,2.8-2.1,5.3-3.1,7.4
				c-1.1,2.1-2.3,3.9-3.6,5.4c-1.3,1.5-2.9,2.6-4.6,3.3c-1.7,0.8-3.8,1.1-6.3,1.1h-7.1c-2.9,0-5.3-0.2-7.2-0.5
				c-1.9-0.3-3.4-0.9-4.6-1.6c-1.1-0.7-2-1.7-2.4-2.8c-0.5-1.2-0.7-2.6-0.7-4.2c0-0.4,0-0.9,0.1-1.3c0-0.4,0.1-1,0.2-1.5
				c0.2-1.1,0.5-2.1,0.9-3.1C223.8,306.1,224.2,304.9,224.5,303.5z"/>
			<path d="M265.2,307.4c0-2,0.4-4,1.3-6c0.9-2.1,2-3.9,3.5-5.6c1.5-1.7,3.2-3,5.1-4.1c1.9-1.1,3.9-1.6,6.1-1.6h25.2
				c-1.2,1.5-2.4,3-3.6,4.4c-1.2,1.4-2.5,2.7-3.9,3.9H283c-0.5,0-1.1,0.2-1.7,0.5c-0.6,0.3-1.2,0.8-1.7,1.4c-0.5,0.6-1,1.2-1.5,1.9
				c-0.4,0.7-0.8,1.4-1,2.1c-0.3,1.1-0.5,1.9-0.5,2.5c0,0.8,0.2,1.6,0.6,2.5c0.4,0.9,0.9,1.7,1.6,2.4c0.6,0.7,1.3,1.3,2.1,1.8
				c0.8,0.5,1.5,0.7,2.2,0.7h14.6c-0.9,1.4-2,2.8-3.2,4.2c-1.2,1.4-2.5,2.8-4.1,4h-4.9c-2.5,0-5-0.2-7.4-0.7
				c-2.4-0.4-4.6-1.2-6.5-2.3c-1.9-1.1-3.4-2.6-4.6-4.5c-1.2-1.9-1.7-4.3-1.7-7.3V307.4z"/>
			<path d="M309.4,290h11.7l-5.3,14.5L336,290h13.1L328,306.2l11.7,16.2h-13.1l-12-14.5l-5.3,14.5h-11.7L309.4,290z"/>
			<path d="M360.3,298.2h-11.5v-0.1c0-0.2,0.3-0.6,0.9-1.3s1.2-1.5,2-2.4c0.8-0.9,1.5-1.8,2.3-2.6c0.8-0.8,1.5-1.4,2-1.8h30.6
				c-0.3,0.6-0.8,1.3-1.4,2.2s-1.4,1.8-2.1,2.7c-0.8,0.9-1.5,1.7-2.2,2.3c-0.7,0.7-1.2,1-1.6,1H372l-8.8,24.1h-11.7L360.3,298.2z"/>
			<path d="M389.6,290h11.7l-6.9,18.9l6.2-6.4h9.3l4.6-12.5h11.6l-11.8,32.3h-11.6l4.2-11.6h-13.2l-4.2,11.6h-11.7L389.6,290z"/>
			<path d="M450.1,322.3l-1.3-6.9c-0.1,0.2-0.4,0.7-0.9,1.4c-0.5,0.7-1.1,1.4-1.7,2.2c-0.6,0.8-1.3,1.5-1.9,2.1
				c-0.6,0.7-1.1,1-1.3,1.2h-25.8c0.1-0.3,0.1-0.5,0.1-0.4v-0.2l22-28.1c0.1-0.2,0.4-0.6,0.7-1c0.4-0.4,0.8-0.8,1.2-1.2
				c0.4-0.4,0.9-0.7,1.3-1c0.4-0.3,0.8-0.5,1.1-0.5h10.2c0.4,0,0.8,0.2,1.1,0.7c0.3,0.4,0.6,1,0.9,1.6s0.5,1.3,0.6,2
				c0.2,0.7,0.3,1.3,0.5,1.8l4,26.2H450.1z M436.5,314.2h12.4l-2.1-14.3l-10.2,13.7V314.2z"/>
			<path d="M474.9,298.2h-11.5v-0.1c0-0.2,0.3-0.6,0.9-1.3s1.2-1.5,2-2.4c0.8-0.9,1.5-1.8,2.3-2.6c0.8-0.8,1.5-1.4,2-1.8h30.6
				c-0.3,0.6-0.8,1.3-1.4,2.2s-1.4,1.8-2.1,2.7c-0.8,0.9-1.5,1.7-2.2,2.3c-0.7,0.7-1.2,1-1.6,1h-7.2l-8.8,24.1h-11.7L474.9,298.2z"
				/>
		</g>
	</g>
	<polygon points="412.9,302.5 394.9,302.5 389,310.3 412.9,310.3 	"/>
	<polygon points="200.2,302.3 192.4,302.3 189.9,309.4 200.2,306.7 	"/>
	<polygon points="126.1,302.2 119.6,302.2 116.9,309.4 125.1,306.3 	"/>
</g>
<g id="Ebene_3">
	<polygon points="305,131.9 331.6,124.1 331.6,230.6 304.3,230.6 247.5,224.9 253,220.7 305,225.6 	"/>
	<polygon points="253,147.6 299.6,160.9 299.6,164.6 	"/>
	<polyline points="299.6,152.5 253,135.4 299.6,148.7 	"/>
	<polygon points="331.6,124.1 454.5,194.9 331.6,127.7 	"/>
	<polygon points="331.6,139.9 425.1,188.2 331.6,143.9 	"/>
	<polygon points="331.6,218 443,236.3 331.6,223.1 	"/>
	<path d="M304.5,230.6c0,0-4.5,4.9-4.5,16.5l-45.7-1.8l-5.1,3.1l62.1,2.8c0,0-4.7-16.4,6.6-20.6H304.5z"/>
	<path d="M166,183.6l44.6-2.4l-36.6,16.4l-41.1,3.3l41.1,0v44.4l24.5,0.6l-4.3,3.4h-69.4l-5.7,4.3h89.9c0,0,2.2-0.1,4.2-10.1
		s5.6-21.4,12.5-22.4s10.8,2.5,13.3,6.1c2.6,3.6,3.3,2,6.4,28.1l70.2,2.4v-12.7c0,0-0.6-9,6.4-10.1c0,0-10.6-3.1-10.6,14.1v2.2h-1.8
		l-1.7-8.5l5.6-13l11.8-0.7l6.4,1.7l122.9,14.4v13.9c0,0-2.1,14.1-14.4,11.6l-9.8,0.3c0,0-9.5,0.5-11.8-8l-75.7-4.1
		c0,0-1,10.2-11.3,10.8l-12.4-0.1c0,0-8,1.1-10.5-7.6l-70,0.4c0,0-1.7,4.6-7.7,7.7l-12.7,0.9h-12.5c0,0-5.7-4.1-6.9-9.4h-26.8
		c0,0-2,4.2-8.1,7c-6.2,2.8-19.5,1.8-19.5,1.8s-9.5-1-14-11.2l-13.7-0.3c0,0-5.7-0.4-5.7-6s0-25.6,0-25.6s1-9.3,10.9-11.7l1.7-10.4
		c0,0,1.5-5.7,9.7-9.4s28.2-11.6,28.2-11.6l10.7-24.4c0,0,1.4-0.3,7.8-1.3c9.5-1.6,54.6-8.2,54.6-8.2L222.2,174"/>
	<rect x="60.7" y="268.3" width="440" height="5.7"/>
	<path d="M175.4,152.5l61.4-9.4l4-6.8c4.2-7.1,11.7-11.6,19.9-12.1l28.4-0.1l-27-1.1c-9,0-8.9-0.1-20.3,0c-6.5,0-12.6,0.9-19.2,2.1
		c-1.1,0.2-2.2,0.5-3.3,0.7l-22.6,6.1C187.8,135.1,180.7,140.1,175.4,152.5L175.4,152.5z"/>
</g>
</svg>
